<svg height='300px' width='300px'  fill="#000000" xmlns="http://www.w3.org/2000/svg" viewBox="0 0 512 512" x="0px" y="0px"><title>glyph brain medical</title><path d="M455.25,183.1a10.12,10.12,0,0,1-3.74-8.63c.09-1.29.14-2.6.14-3.92a55.64,55.64,0,0,0-20.81-43.45A6.59,6.59,0,0,0,420.18,131,91.19,91.19,0,0,1,412.76,154,8.53,8.53,0,0,1,401,157.77c-3.84-2.11-5.35-7.46-3.45-11.41l.22-.46a60.28,60.28,0,0,0-10.86-67.23A70.45,70.45,0,0,0,287.71,76c-6,5.75-14.23,15.4-18.63,28.09a8.52,8.52,0,0,1-11.59,5,8.78,8.78,0,0,1-4.4-10.92,84,84,0,0,1,11-20.8,8,8,0,0,0-3.19-12A95.43,95.43,0,0,0,143,98.27a7.64,7.64,0,0,0,2.52,10.92c9.86,5.67,21,14.85,27.34,29.15,1.87,4.23.44,9.37-3.67,11.49a8.53,8.53,0,0,1-11.77-4.2c-3.29-7.66-11.48-14.65-17.8-19.17a36.91,36.91,0,0,0-21.24-7h-.14a49.71,49.71,0,0,0-49.78,49.75v.09A8.63,8.63,0,0,1,63.7,177,62.44,62.44,0,0,0,70,291.65a7.57,7.57,0,0,0,10-5.81c2.72-14.67,9.54-25,17.74-32.15a6.67,6.67,0,0,0,0-10,50.75,50.75,0,0,1-14-21.87,8.53,8.53,0,1,1,16.23-5.23A33.71,33.71,0,0,0,132.13,240h43.56A24.38,24.38,0,0,0,200,216a9.35,9.35,0,0,1,.79-3.92,8.55,8.55,0,0,1,9.09-4.84,105.85,105.85,0,0,0,31.83-.78c20.68-3.87,34.2-14.08,40.18-30.36a8.69,8.69,0,0,1,10.64-5.35,8.53,8.53,0,0,1,5.44,11,60.58,60.58,0,0,1-8.23,15.41,8.67,8.67,0,0,0-.1,10.33c8.31,11.23,24.48,27.92,49.55,32.54a8.81,8.81,0,0,1,7.37,9.46,8.54,8.54,0,0,1-8.47,7.54,8.75,8.75,0,0,1-1.51-.14,89.49,89.49,0,0,1-24.46-8.12,4.41,4.41,0,0,0-6.12,2.49,52.62,52.62,0,0,1-20.41,26.74,8.54,8.54,0,0,1-12.21-2.88,8.73,8.73,0,0,1,2.82-11.37,36.83,36.83,0,0,0,14.92-22.13,10.28,10.28,0,0,0-2.87-9.82,109.86,109.86,0,0,1-12.63-14.48,6.2,6.2,0,0,0-7.82-1.9c-15,7.7-32.37,10-46.52,9.8a7.13,7.13,0,0,0-6.77,4.71,41.48,41.48,0,0,1-38.86,27.1H136.37a44.52,44.52,0,0,0-17.08,3.24,41.12,41.12,0,0,0-5.8,2.94A34.49,34.49,0,0,0,103,273.12c-8.56,12.35-7.47,29,1.91,40.75,7,8.79,19.27,17.39,40.36,17.39H273a8.76,8.76,0,0,1,8.88,8.27,8.53,8.53,0,0,1-8.53,8.79H259.41a7.36,7.36,0,0,0-6.68,10.45l39.78,86.18a17.5,17.5,0,0,0,15.9,10.18h34.27a8.13,8.13,0,0,0,7.51-11.27l-17.73-42.4a7.89,7.89,0,0,1,4.31-10.39,46.87,46.87,0,0,0,28.45-32.86,13.1,13.1,0,0,1,9.83-9.59,46.86,46.86,0,0,0,28.52-20.67,6.39,6.39,0,0,0-1.48-8.38,75.31,75.31,0,0,1-18.64-22A8.78,8.78,0,0,1,385.87,286a8.54,8.54,0,0,1,12.27,2.85A58.49,58.49,0,0,0,412,305.58a25.92,25.92,0,0,0,26.78,3.48,74.29,74.29,0,0,0,16.51-126Z"></path></svg>